<svg width="2358" height="448" viewBox="0 0 2358 448" fill="none" xmlns="http://www.w3.org/2000/svg">
<g clip-path="url(#clip0_843_14)">
<rect width="2358" height="448" rx="27" fill="black"/>
<path d="M2358.5 0H0L2358.5 100V0Z" fill="white" fill-opacity="0.16"/>
<path d="M2358.5 448H0L2358.5 348V448Z" fill="#F1F1F1" fill-opacity="0.11"/>
<path d="M967.359 246.859C967.359 245.797 967.203 244.844 966.891 244C966.578 243.125 966 242.312 965.156 241.562C964.312 240.812 963.094 240.062 961.5 239.312C959.938 238.531 957.875 237.719 955.312 236.875C952.312 235.875 949.422 234.75 946.641 233.5C943.859 232.219 941.375 230.734 939.188 229.047C937 227.328 935.266 225.328 933.984 223.047C932.703 220.734 932.062 218.047 932.062 214.984C932.062 212.047 932.719 209.406 934.031 207.062C935.344 204.688 937.172 202.672 939.516 201.016C941.891 199.328 944.672 198.047 947.859 197.172C951.047 196.266 954.531 195.812 958.312 195.812C963.312 195.812 967.719 196.688 971.531 198.438C975.375 200.156 978.375 202.609 980.531 205.797C982.719 208.953 983.812 212.688 983.812 217H967.453C967.453 215.281 967.094 213.766 966.375 212.453C965.688 211.141 964.641 210.109 963.234 209.359C961.828 208.609 960.062 208.234 957.938 208.234C955.875 208.234 954.141 208.547 952.734 209.172C951.328 209.797 950.266 210.641 949.547 211.703C948.828 212.734 948.469 213.875 948.469 215.125C948.469 216.156 948.75 217.094 949.312 217.938C949.906 218.75 950.734 219.516 951.797 220.234C952.891 220.953 954.203 221.641 955.734 222.297C957.297 222.953 959.047 223.594 960.984 224.219C964.609 225.375 967.828 226.672 970.641 228.109C973.484 229.516 975.875 231.125 977.812 232.938C979.781 234.719 981.266 236.75 982.266 239.031C983.297 241.312 983.812 243.891 983.812 246.766C983.812 249.828 983.219 252.547 982.031 254.922C980.844 257.297 979.141 259.312 976.922 260.969C974.703 262.594 972.047 263.828 968.953 264.672C965.859 265.516 962.406 265.938 958.594 265.938C955.094 265.938 951.641 265.5 948.234 264.625C944.859 263.719 941.797 262.344 939.047 260.5C936.297 258.625 934.094 256.234 932.438 253.328C930.812 250.391 930 246.906 930 242.875H946.5C946.5 244.875 946.766 246.562 947.297 247.938C947.828 249.312 948.609 250.422 949.641 251.266C950.672 252.078 951.938 252.672 953.438 253.047C954.938 253.391 956.656 253.562 958.594 253.562C960.688 253.562 962.375 253.266 963.656 252.672C964.938 252.047 965.875 251.234 966.469 250.234C967.062 249.203 967.359 248.078 967.359 246.859ZM1008.92 224.031V284.5H993.127V214.281H1007.85L1008.92 224.031ZM1040.05 239.031V240.016C1040.05 243.703 1039.63 247.125 1038.78 250.281C1037.94 253.438 1036.69 256.188 1035.03 258.531C1033.38 260.875 1031.31 262.703 1028.85 264.016C1026.41 265.297 1023.58 265.938 1020.36 265.938C1017.33 265.938 1014.72 265.266 1012.53 263.922C1010.35 262.578 1008.52 260.719 1007.05 258.344C1005.58 255.969 1004.39 253.25 1003.49 250.188C1002.58 247.125 1001.86 243.891 1001.33 240.484V239.219C1001.86 235.562 1002.58 232.172 1003.49 229.047C1004.39 225.891 1005.58 223.141 1007.05 220.797C1008.52 218.453 1010.33 216.625 1012.49 215.312C1014.67 214 1017.28 213.344 1020.31 213.344C1023.53 213.344 1026.36 213.953 1028.8 215.172C1031.27 216.391 1033.33 218.141 1034.99 220.422C1036.67 222.672 1037.94 225.375 1038.78 228.531C1039.63 231.688 1040.05 235.188 1040.05 239.031ZM1024.25 240.016V239.031C1024.25 237.062 1024.11 235.266 1023.83 233.641C1023.55 231.984 1023.1 230.547 1022.47 229.328C1021.88 228.109 1021.08 227.172 1020.08 226.516C1019.08 225.859 1017.85 225.531 1016.38 225.531C1014.69 225.531 1013.27 225.797 1012.11 226.328C1010.99 226.828 1010.08 227.609 1009.39 228.672C1008.74 229.703 1008.27 231 1007.99 232.562C1007.74 234.094 1007.63 235.891 1007.66 237.953V241.797C1007.6 244.172 1007.83 246.266 1008.36 248.078C1008.89 249.859 1009.81 251.25 1011.13 252.25C1012.44 253.25 1014.22 253.75 1016.47 253.75C1017.97 253.75 1019.22 253.406 1020.22 252.719C1021.22 252 1022.02 251.016 1022.61 249.766C1023.21 248.484 1023.63 247.016 1023.88 245.359C1024.13 243.703 1024.25 241.922 1024.25 240.016ZM1065.21 214.281V265H1049.36V214.281H1065.21ZM1048.43 201.203C1048.43 198.953 1049.24 197.109 1050.86 195.672C1052.49 194.234 1054.6 193.516 1057.19 193.516C1059.79 193.516 1061.9 194.234 1063.52 195.672C1065.15 197.109 1065.96 198.953 1065.96 201.203C1065.96 203.453 1065.15 205.297 1063.52 206.734C1061.9 208.172 1059.79 208.891 1057.19 208.891C1054.6 208.891 1052.49 208.172 1050.86 206.734C1049.24 205.297 1048.43 203.453 1048.43 201.203ZM1092.34 226.844V265H1076.54V214.281H1091.3L1092.34 226.844ZM1107.34 213.906L1107.05 228.578C1106.43 228.516 1105.59 228.438 1104.52 228.344C1103.46 228.25 1102.57 228.203 1101.85 228.203C1100.01 228.203 1098.41 228.422 1097.07 228.859C1095.76 229.266 1094.66 229.891 1093.79 230.734C1092.95 231.547 1092.32 232.578 1091.91 233.828C1091.54 235.078 1091.37 236.531 1091.4 238.188L1088.54 236.312C1088.54 232.906 1088.87 229.812 1089.52 227.031C1090.21 224.219 1091.18 221.797 1092.43 219.766C1093.68 217.703 1095.2 216.125 1096.98 215.031C1098.76 213.906 1100.76 213.344 1102.98 213.344C1103.76 213.344 1104.52 213.391 1105.27 213.484C1106.05 213.578 1106.74 213.719 1107.34 213.906ZM1139.15 252.25V231.344C1139.15 229.906 1138.95 228.672 1138.54 227.641C1138.13 226.609 1137.49 225.812 1136.62 225.25C1135.74 224.656 1134.57 224.359 1133.1 224.359C1131.92 224.359 1130.9 224.562 1130.06 224.969C1129.21 225.375 1128.57 225.984 1128.13 226.797C1127.7 227.609 1127.48 228.641 1127.48 229.891H1111.68C1111.68 227.547 1112.2 225.375 1113.23 223.375C1114.29 221.344 1115.79 219.578 1117.73 218.078C1119.7 216.578 1122.04 215.422 1124.76 214.609C1127.51 213.766 1130.57 213.344 1133.95 213.344C1137.98 213.344 1141.57 214.016 1144.73 215.359C1147.92 216.703 1150.43 218.719 1152.28 221.406C1154.12 224.062 1155.04 227.406 1155.04 231.438V252.203C1155.04 255.516 1155.23 258.031 1155.6 259.75C1155.98 261.438 1156.51 262.922 1157.2 264.203V265H1141.35C1140.6 263.438 1140.04 261.531 1139.67 259.281C1139.32 257 1139.15 254.656 1139.15 252.25ZM1141.07 234.016L1141.17 242.453H1134.18C1132.71 242.453 1131.46 242.656 1130.43 243.062C1129.43 243.469 1128.62 244.031 1127.99 244.75C1127.4 245.438 1126.96 246.219 1126.68 247.094C1126.43 247.969 1126.31 248.891 1126.31 249.859C1126.31 250.797 1126.53 251.641 1126.96 252.391C1127.43 253.109 1128.06 253.672 1128.84 254.078C1129.62 254.484 1130.49 254.688 1131.46 254.688C1133.21 254.688 1134.7 254.359 1135.92 253.703C1137.17 253.016 1138.12 252.188 1138.78 251.219C1139.43 250.25 1139.76 249.344 1139.76 248.5L1143.23 254.969C1142.6 256.219 1141.88 257.484 1141.07 258.766C1140.29 260.047 1139.31 261.234 1138.12 262.328C1136.96 263.391 1135.54 264.266 1133.85 264.953C1132.17 265.609 1130.12 265.938 1127.71 265.938C1124.59 265.938 1121.71 265.297 1119.09 264.016C1116.49 262.734 1114.42 260.953 1112.85 258.672C1111.29 256.359 1110.51 253.703 1110.51 250.703C1110.51 248.078 1110.98 245.734 1111.92 243.672C1112.88 241.609 1114.34 239.859 1116.28 238.422C1118.21 236.984 1120.68 235.891 1123.68 235.141C1126.68 234.391 1130.21 234.016 1134.28 234.016H1141.07ZM1181.93 193V265H1166.09V193H1181.93Z" fill="white"/>
<path d="M1237.44 196.75V265H1231.67V196.75H1237.44ZM1269.22 228.156V233.125H1235.52V228.156H1269.22ZM1273.95 196.75V201.719H1235.52V196.75H1273.95ZM1290.16 222.672V265H1284.58V214.281H1290.02L1290.16 222.672ZM1308.11 213.906L1307.97 219.062C1307.35 218.969 1306.74 218.891 1306.14 218.828C1305.55 218.766 1304.91 218.734 1304.22 218.734C1301.78 218.734 1299.64 219.188 1297.8 220.094C1295.99 220.969 1294.46 222.203 1293.21 223.797C1291.96 225.359 1291 227.203 1290.35 229.328C1289.69 231.422 1289.31 233.672 1289.22 236.078L1287.16 236.875C1287.16 233.562 1287.5 230.484 1288.19 227.641C1288.88 224.797 1289.92 222.312 1291.33 220.188C1292.77 218.031 1294.56 216.359 1296.72 215.172C1298.91 213.953 1301.47 213.344 1304.41 213.344C1305.13 213.344 1305.83 213.406 1306.52 213.531C1307.24 213.625 1307.77 213.75 1308.11 213.906ZM1347.33 255.906V229.75C1347.33 227.344 1346.83 225.266 1345.83 223.516C1344.83 221.766 1343.36 220.422 1341.43 219.484C1339.49 218.547 1337.1 218.078 1334.25 218.078C1331.63 218.078 1329.29 218.547 1327.22 219.484C1325.19 220.391 1323.58 221.625 1322.4 223.188C1321.24 224.719 1320.66 226.422 1320.66 228.297L1315.04 228.25C1315.04 226.344 1315.5 224.5 1316.44 222.719C1317.38 220.938 1318.71 219.344 1320.43 217.938C1322.15 216.531 1324.19 215.422 1326.57 214.609C1328.97 213.766 1331.61 213.344 1334.49 213.344C1338.11 213.344 1341.3 213.953 1344.05 215.172C1346.83 216.391 1349 218.219 1350.57 220.656C1352.13 223.094 1352.91 226.156 1352.91 229.844V254.359C1352.91 256.109 1353.04 257.922 1353.29 259.797C1353.57 261.672 1353.96 263.219 1354.46 264.438V265H1348.5C1348.13 263.875 1347.83 262.469 1347.61 260.781C1347.43 259.062 1347.33 257.438 1347.33 255.906ZM1348.65 235.469L1348.74 239.781H1337.72C1334.85 239.781 1332.27 240.047 1329.99 240.578C1327.74 241.078 1325.83 241.828 1324.27 242.828C1322.71 243.797 1321.5 244.969 1320.66 246.344C1319.85 247.719 1319.44 249.281 1319.44 251.031C1319.44 252.844 1319.9 254.5 1320.8 256C1321.74 257.5 1323.05 258.703 1324.74 259.609C1326.46 260.484 1328.49 260.922 1330.83 260.922C1333.96 260.922 1336.71 260.344 1339.08 259.188C1341.49 258.031 1343.47 256.516 1345.04 254.641C1346.6 252.766 1347.65 250.719 1348.18 248.5L1350.61 251.734C1350.21 253.297 1349.46 254.906 1348.36 256.562C1347.3 258.188 1345.91 259.719 1344.19 261.156C1342.47 262.562 1340.44 263.719 1338.1 264.625C1335.79 265.5 1333.16 265.938 1330.22 265.938C1326.91 265.938 1324.02 265.312 1321.55 264.062C1319.11 262.812 1317.21 261.109 1315.83 258.953C1314.49 256.766 1313.82 254.297 1313.82 251.547C1313.82 249.047 1314.35 246.812 1315.41 244.844C1316.47 242.844 1318 241.156 1320 239.781C1322.04 238.375 1324.47 237.312 1327.32 236.594C1330.19 235.844 1333.41 235.469 1336.97 235.469H1348.65ZM1374.7 224.781V265H1369.07V214.281H1374.46L1374.7 224.781ZM1373.66 236.5L1370.95 235.094C1371.13 232.094 1371.7 229.281 1372.63 226.656C1373.6 224.031 1374.95 221.719 1376.66 219.719C1378.38 217.719 1380.45 216.156 1382.85 215.031C1385.26 213.906 1387.99 213.344 1391.05 213.344C1393.52 213.344 1395.76 213.688 1397.76 214.375C1399.79 215.031 1401.51 216.078 1402.91 217.516C1404.35 218.922 1405.46 220.766 1406.24 223.047C1407.02 225.328 1407.41 228.062 1407.41 231.25V265H1401.84V231.438C1401.84 228.062 1401.3 225.422 1400.24 223.516C1399.21 221.609 1397.76 220.25 1395.88 219.438C1394.04 218.625 1391.9 218.219 1389.46 218.219C1386.59 218.219 1384.15 218.812 1382.15 220C1380.18 221.156 1378.57 222.672 1377.32 224.547C1376.1 226.391 1375.2 228.375 1374.6 230.5C1374.01 232.594 1373.7 234.594 1373.66 236.5ZM1407.37 232.094L1403.62 232.188C1403.77 229.719 1404.34 227.359 1405.3 225.109C1406.3 222.859 1407.66 220.859 1409.38 219.109C1411.1 217.328 1413.15 215.922 1415.52 214.891C1417.93 213.859 1420.63 213.344 1423.63 213.344C1426.26 213.344 1428.6 213.703 1430.66 214.422C1432.73 215.109 1434.46 216.219 1435.87 217.75C1437.3 219.25 1438.4 221.172 1439.15 223.516C1439.9 225.859 1440.27 228.672 1440.27 231.953V265H1434.65V231.906C1434.65 228.312 1434.12 225.531 1433.05 223.562C1432.02 221.562 1430.59 220.172 1428.74 219.391C1426.9 218.609 1424.74 218.219 1422.27 218.219C1419.84 218.25 1417.7 218.703 1415.85 219.578C1414.01 220.422 1412.46 221.547 1411.21 222.953C1409.99 224.328 1409.05 225.812 1408.4 227.406C1407.77 229 1407.43 230.562 1407.37 232.094ZM1475.56 265.938C1472.24 265.938 1469.2 265.328 1466.42 264.109C1463.67 262.891 1461.26 261.172 1459.2 258.953C1457.17 256.734 1455.59 254.109 1454.46 251.078C1453.37 248.016 1452.82 244.672 1452.82 241.047V239.031C1452.82 235.125 1453.4 231.594 1454.56 228.438C1455.71 225.281 1457.31 222.578 1459.34 220.328C1461.37 218.078 1463.68 216.359 1466.28 215.172C1468.9 213.953 1471.65 213.344 1474.53 213.344C1477.74 213.344 1480.6 213.922 1483.1 215.078C1485.6 216.203 1487.7 217.812 1489.38 219.906C1491.1 221.969 1492.4 224.422 1493.28 227.266C1494.15 230.078 1494.59 233.188 1494.59 236.594V240.016H1456.2V235.234H1489.01V234.578C1488.95 231.734 1488.37 229.078 1487.28 226.609C1486.21 224.109 1484.62 222.078 1482.49 220.516C1480.37 218.953 1477.71 218.172 1474.53 218.172C1472.15 218.172 1469.96 218.672 1467.96 219.672C1465.99 220.672 1464.29 222.109 1462.85 223.984C1461.45 225.828 1460.35 228.031 1459.57 230.594C1458.82 233.125 1458.45 235.938 1458.45 239.031V241.047C1458.45 243.859 1458.85 246.484 1459.67 248.922C1460.51 251.328 1461.7 253.453 1463.23 255.297C1464.79 257.141 1466.63 258.578 1468.76 259.609C1470.88 260.641 1473.23 261.156 1475.79 261.156C1478.79 261.156 1481.45 260.609 1483.76 259.516C1486.07 258.391 1488.15 256.625 1489.99 254.219L1493.51 256.938C1492.42 258.562 1491.04 260.062 1489.38 261.438C1487.76 262.812 1485.81 263.906 1483.53 264.719C1481.24 265.531 1478.59 265.938 1475.56 265.938ZM1521.15 253.141L1533.39 214.281H1537.33L1534.98 224.734L1522.18 265H1518.25L1521.15 253.141ZM1508.45 214.281L1519.18 253.375L1521.48 265H1517.4L1502.68 214.281H1508.45ZM1552.56 253.234L1563.01 214.281H1568.78L1554.06 265H1550.03L1552.56 253.234ZM1538.12 214.281L1550.17 252.812L1553.22 265H1549.28L1536.2 224.688L1534 214.281H1538.12ZM1577.91 240.438V238.891C1577.91 235.203 1578.44 231.797 1579.5 228.672C1580.56 225.547 1582.08 222.844 1584.05 220.562C1586.05 218.281 1588.44 216.516 1591.22 215.266C1594 213.984 1597.09 213.344 1600.5 213.344C1603.94 213.344 1607.05 213.984 1609.83 215.266C1612.61 216.516 1615 218.281 1617 220.562C1619 222.844 1620.53 225.547 1621.59 228.672C1622.66 231.797 1623.19 235.203 1623.19 238.891V240.438C1623.19 244.125 1622.66 247.531 1621.59 250.656C1620.53 253.75 1619 256.438 1617 258.719C1615.03 261 1612.66 262.781 1609.87 264.062C1607.09 265.312 1604 265.938 1600.59 265.938C1597.16 265.938 1594.05 265.312 1591.27 264.062C1588.48 262.781 1586.09 261 1584.09 258.719C1582.09 256.438 1580.56 253.75 1579.5 250.656C1578.44 247.531 1577.91 244.125 1577.91 240.438ZM1583.48 238.891V240.438C1583.48 243.219 1583.86 245.859 1584.61 248.359C1585.36 250.828 1586.45 253.031 1587.89 254.969C1589.33 256.875 1591.11 258.375 1593.23 259.469C1595.36 260.562 1597.81 261.109 1600.59 261.109C1603.34 261.109 1605.77 260.562 1607.86 259.469C1609.98 258.375 1611.77 256.875 1613.2 254.969C1614.64 253.031 1615.72 250.828 1616.44 248.359C1617.19 245.859 1617.56 243.219 1617.56 240.438V238.891C1617.56 236.141 1617.19 233.531 1616.44 231.062C1615.72 228.594 1614.62 226.391 1613.16 224.453C1611.72 222.516 1609.94 220.984 1607.81 219.859C1605.69 218.734 1603.25 218.172 1600.5 218.172C1597.75 218.172 1595.31 218.734 1593.19 219.859C1591.09 220.984 1589.31 222.516 1587.84 224.453C1586.41 226.391 1585.31 228.594 1584.56 231.062C1583.84 233.531 1583.48 236.141 1583.48 238.891ZM1641.83 222.672V265H1636.25V214.281H1641.69L1641.83 222.672ZM1659.78 213.906L1659.64 219.062C1659.02 218.969 1658.41 218.891 1657.81 218.828C1657.22 218.766 1656.58 218.734 1655.89 218.734C1653.45 218.734 1651.31 219.188 1649.47 220.094C1647.66 220.969 1646.13 222.203 1644.88 223.797C1643.63 225.359 1642.67 227.203 1642.02 229.328C1641.36 231.422 1640.99 233.672 1640.89 236.078L1638.83 236.875C1638.83 233.562 1639.17 230.484 1639.86 227.641C1640.55 224.797 1641.6 222.312 1643 220.188C1644.44 218.031 1646.24 216.359 1648.39 215.172C1650.58 213.953 1653.14 213.344 1656.08 213.344C1656.8 213.344 1657.5 213.406 1658.19 213.531C1658.91 213.625 1659.44 213.75 1659.78 213.906ZM1675.61 193V265H1670.04V193H1675.61ZM1707.44 214.281L1683.72 237.812L1673.64 247.562L1672.8 242.078L1680.91 233.312L1700.36 214.281H1707.44ZM1702.57 265L1681.38 238.656L1684.47 233.828L1709.32 265H1702.57Z" fill="white"/>
<path d="M861.422 107.737L708.299 287.732L669.529 155.493L861.422 107.737Z" fill="white"/>
<path d="M861.422 107.737L861.142 220.351L808.579 243.528L708.299 287.732L861.422 107.737Z" fill="#C4D8E9"/>
<path d="M901.403 60.6353L861.142 220.351L861.422 107.737L901.403 60.6353Z" fill="white"/>
<path d="M848.933 268.948L848.654 270.163L820.881 380.066L785.466 327.451L848.933 268.948Z" fill="white"/>
<path d="M808.579 243.528L785.466 327.451L708.299 287.732L808.579 243.528Z" fill="white"/>
<path d="M848.933 268.948L785.466 327.451L808.579 243.528L848.933 268.948Z" fill="#C4D8E9"/>
</g>
<defs>
<clipPath id="clip0_843_14">
<rect width="2358" height="448" rx="27" fill="white"/>
</clipPath>
</defs>
</svg>
